#tb 0: 1/12
0,          0,          0,        1,   302760, 0x78939253
0,          1,          1,        1,   302760, 0x534f5253
0,          2,          2,        1,   302760, 0x25eaa782
0,          3,          3,        1,   302760, 0x60861c3d
0,          4,          4,        1,   302760, 0x43552521
0,          5,          5,        1,   302760, 0x45abca02
